<svg width="28" height="28" viewBox="0 0 28 28" fill="none" xmlns="http://www.w3.org/2000/svg">
<g clip-path="url(#clip0_3085_12074)">
<g filter="url(#filter0_i_3085_12074)">
<path d="M0 14C0 6.26801 6.26801 0 14 0C21.732 0 28 6.26801 28 14C28 21.732 21.732 28 14 28C6.26801 28 0 21.732 0 14Z" fill="url(#paint0_linear_3085_12074)"/>
</g>
<g filter="url(#filter1_i_3085_12074)">
<path d="M12.9545 27.6649C12.938 27.7791 12.9552 27.8957 13.0037 28H14.9963C15.0448 27.8957 15.062 27.7791 15.0455 27.6649C15.0347 27.5619 15.0433 27.4577 15.0707 27.3579H17.6247C17.8573 27.6198 18.1784 27.7824 18.5237 27.8132C18.6332 27.8116 18.7412 27.7872 18.8411 27.7414C18.941 27.6956 19.0306 27.6295 19.1044 27.547C19.252 27.3703 19.3391 27.1493 19.3525 26.9176C19.3659 26.6859 19.305 26.456 19.1788 26.2628C19.1029 26.1647 19.0058 26.0858 18.8953 26.0319C18.7847 25.9781 18.6634 25.9508 18.5409 25.9522C18.247 25.9671 17.9653 26.0762 17.7358 26.2639H15.0696C15.0334 26.0264 15.0334 25.7846 15.0696 25.5471H16.4393C16.6585 25.5512 16.8751 25.499 17.0692 25.3953C17.6248 25.0587 18.1929 24.7441 18.7723 24.452C19.0186 24.3039 19.2994 24.2257 19.5854 24.2255C19.7669 24.2376 19.9487 24.2435 20.1305 24.243C20.3107 24.2422 20.4879 24.2395 20.662 24.2348C20.8337 24.2296 21.0055 24.2265 21.1773 24.2255C21.4309 24.4733 21.7597 24.6256 22.1096 24.6575C22.2213 24.6564 22.3315 24.6308 22.4327 24.5824C22.5339 24.5341 22.6237 24.4641 22.696 24.3773C22.8565 24.2113 22.9465 23.9875 22.9465 23.7544C22.9465 23.5213 22.8565 23.2976 22.696 23.1316C22.622 23.0365 22.5287 22.9589 22.4226 22.9041C22.3164 22.8493 22.1999 22.8186 22.081 22.814C21.758 22.8455 21.454 22.9836 21.2151 23.2074H19.2899C19.0709 23.203 18.8543 23.2548 18.66 23.358C18.4997 23.4538 18.3244 23.5472 18.1549 23.6371C17.8552 23.7867 17.5666 23.9584 17.2914 24.1508C16.9138 24.4088 16.4679 24.5432 16.0133 24.536C15.9453 24.5354 15.8773 24.5327 15.8094 24.5279C15.7262 24.5178 15.6424 24.5123 15.5586 24.5115C15.4815 24.5115 15.4021 24.5143 15.3204 24.5197C15.2303 24.5252 15.1345 24.5279 15.0329 24.5279V23.3207H16.366C16.5949 23.5205 16.8791 23.6429 17.1792 23.6709C17.317 23.6617 17.4512 23.6222 17.5728 23.5553C17.6943 23.4885 17.8003 23.3957 17.8835 23.2833C18.3073 22.8117 18.037 22.3458 17.7346 22.0376C17.6203 21.9431 17.4775 21.8916 17.3303 21.8917C16.9572 21.9406 16.6143 22.1266 16.366 22.4147H15.1062V21.3581C15.1697 21.3268 15.2395 21.3108 15.3101 21.3114C15.3406 21.3114 15.3723 21.313 15.4051 21.3161C15.4387 21.3184 15.475 21.32 15.5139 21.3208H22.5104C22.6753 21.3318 22.8403 21.2994 22.9893 21.2266C23.1384 21.1538 23.2665 21.0431 23.3614 20.9051C23.5584 20.639 23.7851 20.3693 23.9856 20.1311L24.0657 20.0377C24.9167 19.9618 25.1766 19.705 25.1388 18.9811C25.1288 18.8638 25.0957 18.7498 25.0414 18.6459C24.9872 18.542 24.9129 18.4503 24.8231 18.3763C24.7333 18.3023 24.6298 18.2475 24.5187 18.2152C24.4077 18.1829 24.2914 18.1738 24.1768 18.1884C23.6133 18.1884 23.3625 18.5737 23.3625 19.4341C23.2938 19.5158 23.2239 19.6014 23.1529 19.6909C22.9972 19.8824 22.8368 20.0821 22.6582 20.2642H15.0329C14.9957 19.8627 14.9957 19.4585 15.0329 19.057H20.5852C20.8316 19.3025 21.1528 19.455 21.4957 19.489C21.605 19.4871 21.7126 19.4611 21.8111 19.4127C21.9095 19.3643 21.9965 19.2947 22.0661 19.2088C22.1534 19.1272 22.2232 19.028 22.2709 18.9174C22.3186 18.8069 22.3432 18.6874 22.3432 18.5667C22.3432 18.4459 22.3186 18.3264 22.2709 18.2159C22.2232 18.1053 22.1534 18.0061 22.0661 17.9245C21.9963 17.8334 21.9084 17.7584 21.8081 17.7045C21.7078 17.6505 21.5974 17.6189 21.4843 17.6116C21.1685 17.6495 20.8762 17.8005 20.6597 18.0378H15.0707V16.8679H24.5078C24.6865 17.0695 24.8781 17.2777 25.0827 17.4926L25.1041 17.5155C25.2784 17.7021 25.4584 17.8949 25.6554 18.1125C25.6791 18.345 25.7835 18.5613 25.9498 18.7223C26.1161 18.8832 26.3334 18.9783 26.5624 18.9905C26.6061 18.9899 26.6497 18.9868 26.693 18.9811C26.9428 18.9252 27.1608 18.7708 27.2994 18.5516C27.438 18.3325 27.486 18.0663 27.4328 17.8113C27.3653 17.3641 27.0068 17.1085 26.4479 17.1085C26.344 17.1091 26.2403 17.1169 26.1375 17.1318C25.9348 16.8913 25.629 16.5387 25.3232 16.2258C25.2129 16.0984 25.0755 15.9982 24.9215 15.9329C24.7675 15.8675 24.601 15.8388 24.4345 15.8487H15.0696V14.5657H26.3231C26.5537 14.7949 26.8544 14.9366 27.1751 14.9673C27.3012 14.9631 27.4244 14.9278 27.5342 14.8643C27.6439 14.8009 27.7368 14.7112 27.805 14.603C27.9489 14.4076 28.0171 14.1649 27.9964 13.9215C27.9756 13.6781 27.8676 13.451 27.6928 13.2837C27.5422 13.144 27.3478 13.0633 27.1442 13.0561C26.9583 13.0775 26.779 13.1391 26.6182 13.2368C26.4575 13.3344 26.319 13.4658 26.212 13.6223H22.5471L22.6639 13.5091C23.3053 12.8926 23.9672 12.254 24.7689 11.5092C24.8898 11.5129 25.01 11.4907 25.122 11.4442C25.2339 11.3976 25.335 11.3276 25.4188 11.2387C25.5025 11.1498 25.5671 11.044 25.6082 10.9281C25.6494 10.8122 25.6662 10.6888 25.6577 10.5658C25.6577 9.96573 25.4057 9.69837 24.8434 9.69837C24.0852 9.69837 23.8813 9.94588 23.8435 10.9056C23.5595 11.1834 23.2801 11.4531 22.9846 11.738C22.3367 12.3567 21.6976 12.9849 21.0674 13.6223H15.0707V12.7549H17.698C17.9315 12.9361 18.2125 13.0429 18.5054 13.0619C18.636 13.0603 18.7646 13.0284 18.8813 12.9685C18.998 12.9086 19.0997 12.8224 19.1788 12.7163C19.3181 12.5233 19.3803 12.2836 19.3528 12.0457C19.3254 11.8077 19.2104 11.5893 19.0311 11.4344C18.8945 11.307 18.7157 11.2369 18.5306 11.2383C18.1712 11.2681 17.8353 11.4319 17.5869 11.6983H15.0696V10.7176C15.3307 10.7168 15.5869 10.7137 15.8381 10.7083H15.8461C16.0965 10.7034 16.3469 10.7007 16.5974 10.7001C16.8814 10.7001 17.1322 10.7059 17.3647 10.7164C17.4085 10.7209 17.4524 10.7229 17.4964 10.7223C17.8641 10.7178 18.2155 10.567 18.4756 10.302L19.1628 9.71005L19.1765 9.69837L19.1857 9.6902C19.651 9.28868 20.1175 8.88862 20.5852 8.49001H24.6945C24.9267 8.68992 25.2157 8.8086 25.5191 8.82859C25.6465 8.82689 25.7719 8.7955 25.8857 8.73682C25.9994 8.67813 26.0985 8.59372 26.1753 8.49001C26.2513 8.3986 26.3087 8.29275 26.3442 8.17857C26.3798 8.0644 26.3928 7.94417 26.3824 7.82484C26.3721 7.70552 26.3386 7.58947 26.284 7.48341C26.2294 7.37734 26.1547 7.28338 26.0642 7.20694C25.9231 7.0518 25.7286 6.95848 25.5214 6.94659C25.1576 7.00328 24.8254 7.18939 24.5834 7.47196H20.9929C20.7474 7.46433 20.5028 7.50711 20.2738 7.59777C20.0448 7.68843 19.836 7.8251 19.6598 7.99967C19.2431 8.39946 18.7729 8.78592 18.3163 9.16121L18.2821 9.18934H18.2809C18.0633 9.36797 17.8366 9.55243 17.6247 9.73339H15.1074V8.48885C15.2654 8.48885 15.4303 8.48418 15.5884 8.48067H15.5918C15.7597 8.47547 15.9277 8.47235 16.0957 8.47133C16.279 8.47133 16.4424 8.47717 16.5859 8.48885C16.6297 8.49337 16.6736 8.49532 16.7176 8.49468C17.0783 8.48882 17.4254 8.35366 17.698 8.11291C17.8128 8.01743 17.9292 7.92401 18.0473 7.83272C18.1653 7.73932 18.2901 7.64358 18.4023 7.54668C19.3186 7.47196 19.6598 7.20811 19.6232 6.60334C19.6134 6.3698 19.5155 6.14915 19.3499 5.98749C19.1843 5.82583 18.9638 5.73569 18.7345 5.7359C18.1653 5.7359 17.8469 6.08848 17.8091 6.75395C17.6613 6.8672 17.5136 6.99212 17.3647 7.11237L17.3636 7.11471C17.2181 7.23496 17.0669 7.35988 16.9192 7.47196H15.1051V6.00092H15.735C15.9753 6.23303 16.2825 6.38036 16.6111 6.42122C16.731 6.41425 16.8478 6.37951 16.9526 6.31963C17.0574 6.25975 17.1474 6.1763 17.2158 6.07564C17.3719 5.89729 17.455 5.66474 17.448 5.42584C17.4409 5.18694 17.3443 4.95988 17.178 4.79139C17.1038 4.71291 17.0148 4.65037 16.9165 4.60746C16.8181 4.56455 16.7124 4.54214 16.6054 4.54155C16.4392 4.55253 16.2769 4.59698 16.1276 4.67233C15.9784 4.74768 15.8454 4.85243 15.7361 4.98053H15.144C15.0806 4.85626 15.0631 4.71289 15.0948 4.57658C15.1022 4.5232 15.1061 4.46937 15.1062 4.41546V3.81187C15.2174 3.82207 15.329 3.82675 15.4406 3.82588C15.5762 3.82471 15.7118 3.82082 15.8472 3.8142H15.8552C15.9941 3.80709 16.1331 3.80319 16.2721 3.80253C16.6778 3.78441 17.0808 3.87882 17.438 4.07572C17.8506 4.32686 18.277 4.55372 18.715 4.7552H18.7184C18.8937 4.84043 19.0758 4.92799 19.2521 5.01672C19.4042 5.0808 19.5692 5.10682 19.7331 5.09261H22.2115C22.4233 5.31391 22.7064 5.44988 23.0086 5.47555C23.1437 5.4689 23.2755 5.43108 23.3941 5.36495C23.5128 5.29882 23.6151 5.2061 23.6935 5.09377C23.769 5.00789 23.8264 4.90708 23.8621 4.79761C23.8977 4.68815 23.9109 4.57237 23.9008 4.45749C23.8896 4.32502 23.8524 4.1962 23.7914 4.07868C23.7304 3.96115 23.6469 3.85732 23.5458 3.77334C23.3978 3.63336 23.2057 3.5518 23.004 3.54334C22.8311 3.56434 22.6645 3.62268 22.5154 3.71448C22.3663 3.80628 22.2381 3.92943 22.1394 4.07572H19.7331C19.6449 4.07202 19.5582 4.05101 19.4777 4.01384C19.4282 3.99311 19.3773 3.97595 19.3254 3.96247C19.175 3.88542 19.0261 3.81148 18.8788 3.74065C18.5122 3.56969 18.1548 3.37912 17.8079 3.16975C17.34 2.88477 16.8034 2.73841 16.2584 2.74711C16.1843 2.74711 16.1087 2.74945 16.0316 2.75412C15.9336 2.76605 15.8349 2.77151 15.7361 2.77046C15.6392 2.77046 15.5399 2.76813 15.4384 2.76346H15.4372C15.3318 2.75801 15.2227 2.7549 15.1097 2.75412C15.0637 2.5277 15.0495 2.29579 15.0673 2.0653C15.0703 1.98357 15.0719 1.89873 15.0719 1.81078H17.4059C17.6551 2.02428 17.96 2.15899 18.2832 2.19839C18.4034 2.19142 18.5203 2.15616 18.6248 2.0954C18.7293 2.03463 18.8186 1.95 18.8856 1.84814C19.0288 1.66203 19.1003 1.42894 19.0866 1.19281C19.0729 0.956686 18.9749 0.733825 18.8112 0.566234C18.6617 0.417283 18.4624 0.331738 18.2534 0.326898C17.9168 0.356989 17.6016 0.508499 17.3647 0.754201H15.0696C15.068 0.650683 15.0627 0.543274 15.0535 0.431973C15.0432 0.298878 15.0329 0.162282 15.0329 0H14.8886H13.1114H12.9671C12.9671 0.162282 12.9568 0.298878 12.9465 0.431973C12.9373 0.543274 12.932 0.650683 12.9304 0.754201H10.6353C10.3984 0.508499 10.0832 0.356989 9.74656 0.326898C9.53761 0.331738 9.33825 0.417283 9.18881 0.566234C9.02506 0.733825 8.92709 0.956686 8.91338 1.19281C8.89967 1.42894 8.97116 1.66203 9.11437 1.84814C9.18141 1.95 9.2707 2.03463 9.37522 2.0954C9.47974 2.15616 9.59665 2.19142 9.71678 2.19839C10.04 2.15899 10.3449 2.02428 10.5941 1.81078H12.9281C12.9281 1.89873 12.9297 1.98357 12.9327 2.0653C12.9505 2.29579 12.9363 2.5277 12.8903 2.75412C12.7773 2.7549 12.6682 2.75801 12.5628 2.76346H12.5616C12.4601 2.76813 12.3608 2.77046 12.2639 2.77046C12.1651 2.77151 12.0664 2.76605 11.9684 2.75412C11.8913 2.74945 11.8157 2.74711 11.7416 2.74711C11.1966 2.73841 10.66 2.88477 10.1921 3.16975C9.84523 3.37912 9.48779 3.56969 9.12124 3.74065C8.97388 3.81148 8.82499 3.88542 8.67458 3.96247C8.62269 3.97595 8.57179 3.99311 8.52226 4.01384C8.44182 4.05101 8.3551 4.07202 8.26686 4.07572H5.86064C5.7619 3.92943 5.63371 3.80628 5.48461 3.71448C5.33551 3.62268 5.16892 3.56434 4.99595 3.54334C4.79427 3.5518 4.60218 3.63336 4.45424 3.77334C4.35312 3.85732 4.26958 3.96115 4.20859 4.07868C4.1476 4.1962 4.1104 4.32502 4.0992 4.45749C4.08908 4.57237 4.10226 4.68815 4.13793 4.79761C4.17359 4.90708 4.23097 5.00789 4.3065 5.09377C4.38487 5.2061 4.48723 5.29882 4.60586 5.36495C4.7245 5.43108 4.85631 5.4689 4.99137 5.47555C5.29363 5.44988 5.57666 5.31391 5.78848 5.09261H8.26686C8.43085 5.10682 8.59578 5.0808 8.74788 5.01672C8.92425 4.92799 9.10635 4.84043 9.28158 4.7552H9.28501C9.72304 4.55372 10.1494 4.32686 10.562 4.07572C10.9192 3.87882 11.3222 3.78441 11.7279 3.80253C11.8669 3.80319 12.0059 3.80709 12.1448 3.8142H12.1528C12.2882 3.82082 12.4238 3.82471 12.5594 3.82588C12.671 3.82675 12.7826 3.82207 12.8938 3.81187V4.41546C12.8939 4.46937 12.8978 4.5232 12.9052 4.57658C12.9369 4.71289 12.9194 4.85626 12.856 4.98053H12.2639C12.1546 4.85243 12.0216 4.74768 11.8724 4.67233C11.7232 4.59698 11.5608 4.55253 11.3946 4.54155C11.2876 4.54214 11.1819 4.56455 11.0835 4.60746C10.9852 4.65037 10.8962 4.71291 10.822 4.79139C10.6557 4.95988 10.5591 5.18694 10.552 5.42584C10.545 5.66474 10.6281 5.89729 10.7842 6.07564C10.8526 6.1763 10.9426 6.25975 11.0474 6.31963C11.1522 6.37951 11.269 6.41425 11.3889 6.42122C11.7175 6.38036 12.0247 6.23303 12.265 6.00092H12.8949V7.47196H11.0808C10.9331 7.35988 10.7819 7.23496 10.6364 7.11471L10.6353 7.11237C10.4864 6.99212 10.3387 6.8672 10.1909 6.75395C10.1531 6.08848 9.83475 5.7359 9.26554 5.7359C9.03624 5.73569 8.81573 5.82583 8.65011 5.98749C8.48448 6.14915 8.38656 6.3698 8.37681 6.60334C8.34016 7.20811 8.68145 7.47196 9.59767 7.54668C9.70991 7.64358 9.83475 7.73932 9.95271 7.83272C10.0708 7.92401 10.1872 8.01743 10.302 8.11291C10.5746 8.35366 10.9217 8.48882 11.2824 8.49468C11.3264 8.49532 11.3703 8.49337 11.4141 8.48885C11.5576 8.47717 11.721 8.47133 11.9043 8.47133C12.0723 8.47235 12.2403 8.47547 12.4082 8.48067H12.4116C12.5697 8.48418 12.7346 8.48885 12.8926 8.48885V9.73339H10.3753C10.1634 9.55243 9.93668 9.36797 9.71907 9.18934H9.71793L9.68367 9.16119C9.22709 8.7859 8.75692 8.39945 8.34016 7.99967C8.164 7.8251 7.95521 7.68843 7.72619 7.59777C7.49718 7.50712 7.25262 7.46433 7.00706 7.47196H3.41662C3.17464 7.18939 2.84235 7.00328 2.47863 6.94659C2.27145 6.95848 2.07685 7.0518 1.93577 7.20694C1.8453 7.28338 1.77059 7.37734 1.71597 7.48341C1.66135 7.58947 1.62791 7.70552 1.61758 7.82484C1.60725 7.94417 1.62023 8.0644 1.65578 8.17857C1.69133 8.29275 1.74874 8.3986 1.82468 8.49001C1.90151 8.59372 2.00058 8.67813 2.11432 8.73682C2.22806 8.7955 2.35346 8.82689 2.48093 8.82859C2.78425 8.8086 3.07328 8.68992 3.30552 8.49001H7.41478C7.88249 8.88862 8.349 9.28868 8.81431 9.6902L8.82347 9.69837L8.83721 9.71005L9.52438 10.302C9.78445 10.567 10.1359 10.7178 10.5036 10.7223C10.5476 10.7229 10.5915 10.7209 10.6353 10.7164C10.8678 10.7059 11.1186 10.7001 11.4026 10.7001C11.6531 10.7007 11.9035 10.7034 12.1539 10.7083H12.1619C12.4131 10.7137 12.6693 10.7168 12.9304 10.7176V11.6983H10.4131C10.1647 11.4319 9.82876 11.2681 9.4694 11.2383C9.28426 11.2369 9.10546 11.307 8.96892 11.4344C8.78958 11.5893 8.67458 11.8078 8.64715 12.0457C8.61973 12.2836 8.68193 12.5233 8.82118 12.7163C8.90025 12.8224 9.00201 12.9086 9.11871 12.9685C9.2354 13.0284 9.36396 13.0603 9.4946 13.0619C9.78755 13.0429 10.0685 12.9361 10.302 12.7549H12.9293V13.6223H6.93262C6.30243 12.9849 5.6633 12.3567 5.01542 11.738C4.71994 11.4531 4.44049 11.1834 4.15646 10.9056C4.11867 9.94588 3.91481 9.69837 3.15664 9.69837C2.59431 9.69837 2.34235 9.96573 2.34235 10.5658C2.3338 10.6888 2.35065 10.8122 2.39179 10.9281C2.43294 11.044 2.49747 11.1498 2.58122 11.2387C2.66497 11.3276 2.76608 11.3976 2.87802 11.4442C2.98995 11.4907 3.11023 11.5129 3.23108 11.5092C4.03277 12.254 4.69474 12.8926 5.3361 13.5091L5.45292 13.6223H1.78803C1.68102 13.4658 1.54252 13.3344 1.38177 13.2368C1.22102 13.1391 1.04171 13.0775 0.855777 13.0561C0.65222 13.0633 0.45779 13.144 0.30719 13.2837C0.132436 13.451 0.0243523 13.6781 0.00364225 13.9215C-0.0170678 14.1649 0.0510518 14.4076 0.194953 14.603C0.263156 14.7112 0.356118 14.8009 0.465843 14.8643C0.575568 14.9278 0.698771 14.9631 0.824855 14.9673C1.14557 14.9366 1.44631 14.7949 1.67694 14.5657H12.9304V15.8487H3.5655C3.39901 15.8388 3.23247 15.8675 3.0785 15.9329C2.92452 15.9982 2.78715 16.0984 2.67677 16.2258C2.37098 16.5387 2.06519 16.8913 1.86248 17.1318C1.75966 17.1169 1.65596 17.1091 1.55211 17.1085C0.99321 17.1085 0.634739 17.3641 0.567168 17.8113C0.514043 18.0663 0.562011 18.3325 0.700609 18.5516C0.839208 18.7708 1.05719 18.9252 1.30702 18.9811C1.35033 18.9868 1.39392 18.9899 1.43758 18.9905C1.66661 18.9783 1.88386 18.8832 2.05018 18.7223C2.21649 18.5613 2.32092 18.345 2.34464 18.1125C2.54162 17.8949 2.72169 17.702 2.89601 17.5153L2.91728 17.4926C3.1219 17.2777 3.31354 17.0695 3.4922 16.8679H12.9293V18.0378H7.34033C7.12376 17.8005 6.83149 17.6495 6.51573 17.6116C6.40257 17.6189 6.29219 17.6505 6.19191 17.7045C6.09162 17.7584 6.00369 17.8334 5.93393 17.9245C5.84659 18.0061 5.77684 18.1053 5.72913 18.2159C5.68142 18.3264 5.65678 18.4459 5.65678 18.5667C5.65678 18.6874 5.68142 18.8069 5.72913 18.9174C5.77684 19.028 5.84659 19.1272 5.93393 19.2088C6.00348 19.2947 6.09048 19.3643 6.18894 19.4127C6.28741 19.4611 6.39499 19.4871 6.50428 19.489C6.8472 19.455 7.16843 19.3025 7.41478 19.057H12.9671C13.0043 19.4585 13.0043 19.8627 12.9671 20.2642H5.34183C5.16316 20.0821 5.00282 19.8824 4.84707 19.6909C4.77606 19.6014 4.7062 19.5158 4.63748 19.4341C4.63748 18.5737 4.38667 18.1884 3.82319 18.1884C3.7086 18.1738 3.59231 18.1829 3.48126 18.2152C3.37021 18.2475 3.26669 18.3023 3.17689 18.3763C3.08708 18.4503 3.01283 18.542 2.95859 18.6459C2.90434 18.7498 2.8712 18.8638 2.86116 18.9811C2.82336 19.705 3.08334 19.9618 3.93428 20.0377L4.01445 20.1311C4.21487 20.3693 4.44164 20.639 4.63863 20.9051C4.7335 21.0431 4.86163 21.1538 5.01068 21.2266C5.15972 21.2994 5.32465 21.3318 5.48957 21.3208H12.4861C12.525 21.32 12.5613 21.3184 12.5949 21.3161C12.6277 21.313 12.6594 21.3114 12.6899 21.3114C12.7605 21.3108 12.8303 21.3268 12.8938 21.3581V22.4147H11.634C11.3857 22.1266 11.0428 21.9406 10.6697 21.8917C10.5225 21.8916 10.3797 21.9431 10.2654 22.0376C9.96302 22.3458 9.69273 22.8117 10.1165 23.2833C10.1997 23.3957 10.3057 23.4885 10.4272 23.5553C10.5488 23.6222 10.683 23.6617 10.8208 23.6709C11.1209 23.6429 11.4051 23.5205 11.634 23.3207H12.9671V24.5279C12.8655 24.5279 12.7697 24.5252 12.6796 24.5197C12.5979 24.5143 12.5185 24.5115 12.4414 24.5115C12.3576 24.5123 12.2738 24.5178 12.1906 24.5279C12.1227 24.5327 12.0547 24.5354 11.9867 24.536C11.5321 24.5432 11.0862 24.4088 10.7086 24.1508C10.4334 23.9584 10.1448 23.7867 9.84505 23.6371C9.67555 23.5472 9.50033 23.4538 9.33999 23.358C9.14574 23.2548 8.92912 23.203 8.71008 23.2074H6.78487C6.54602 22.9836 6.242 22.8455 5.91905 22.814C5.80013 22.8186 5.68358 22.8493 5.57742 22.9041C5.47126 22.9589 5.37799 23.0365 5.30403 23.1316C5.14351 23.2976 5.05353 23.5213 5.05353 23.7544C5.05353 23.9875 5.14351 24.2113 5.30403 24.3773C5.37633 24.4641 5.46612 24.5341 5.5673 24.5824C5.66848 24.6308 5.77868 24.6564 5.89041 24.6575C6.24028 24.6256 6.56907 24.4733 6.82267 24.2255C6.99449 24.2265 7.16629 24.2296 7.33804 24.2348C7.51213 24.2395 7.68926 24.2422 7.86945 24.243C8.05131 24.2435 8.23313 24.2376 8.4146 24.2255C8.70062 24.2257 8.98137 24.3039 9.22775 24.452C9.80708 24.7441 10.3752 25.0587 10.9308 25.3953C11.1249 25.499 11.3415 25.5512 11.5607 25.5471H12.9304C12.9666 25.7846 12.9666 26.0264 12.9304 26.2639H10.2642C10.0347 26.0762 9.75297 25.9671 9.4591 25.9522C9.33655 25.9508 9.21533 25.9781 9.10474 26.0319C8.99416 26.0858 8.89715 26.1647 8.82118 26.2628C8.69503 26.456 8.63406 26.6859 8.64749 26.9176C8.66092 27.1493 8.74803 27.3703 8.89562 27.547C8.96944 27.6295 9.05905 27.6956 9.15891 27.7414C9.25878 27.7872 9.36679 27.8116 9.47627 27.8132C9.82156 27.7824 10.1427 27.6198 10.3753 27.3579H12.9293C12.9567 27.4577 12.9653 27.5619 12.9545 27.6649Z" fill="#513690"/>
</g>
<g filter="url(#filter2_d_3085_12074)">
<g filter="url(#filter3_i_3085_12074)">
<path d="M14.668 18.2001L16.147 9.29102H19.9925C20.6538 9.29102 21.2106 9.42152 21.663 9.68253C22.1154 9.94354 22.4402 10.3104 22.6374 10.7831C22.8346 11.2558 22.881 11.8083 22.7766 12.4405C22.6722 13.0843 22.4402 13.6397 22.0806 14.1066C21.7239 14.5706 21.2686 14.9288 20.7147 15.1811C20.1636 15.4305 19.5459 15.5552 18.8615 15.5552H16.5646L16.8778 13.676H18.6875C18.9775 13.676 19.2327 13.6267 19.4531 13.5281C19.6735 13.4266 19.8519 13.2844 19.9882 13.1017C20.1245 12.9161 20.2129 12.6957 20.2536 12.4405C20.2942 12.1853 20.2753 11.9678 20.197 11.788C20.1216 11.6053 19.9911 11.4661 19.8055 11.3704C19.6228 11.2718 19.3893 11.2225 19.1051 11.2225H18.2525L17.0866 18.2001H14.668Z" fill="#DDD6FE"/>
</g>
<g filter="url(#filter4_i_3085_12074)">
<path d="M9.29235 9.29102L10.319 11.8837H10.3886L12.3026 9.29102H15.1041L11.711 13.7456L13.7295 18.2001H11.0324L9.95357 15.5552H9.88397L7.9351 18.2001H5.11621L8.59632 13.7456L6.68226 9.29102H9.29235Z" fill="#DDD6FE"/>
</g>
</g>
<g filter="url(#filter5_i_3085_12074)">
<path fill-rule="evenodd" clip-rule="evenodd" d="M14.2559 18.5495L15.8511 8.94043H19.9933C20.6999 8.94043 21.3207 9.07995 21.8387 9.37878C22.3562 9.67734 22.7338 10.1027 22.9612 10.6478C23.1893 11.1944 23.2351 11.8158 23.1229 12.4963C23.0101 13.1911 22.7574 13.802 22.3587 14.3196C21.9657 14.8307 21.4643 15.224 20.8605 15.499C20.2586 15.7715 19.5899 15.9046 18.8623 15.9046H17.8257L17.3838 18.5495H14.2559ZM17.5293 15.5546H18.8623C19.5467 15.5546 20.1644 15.4299 20.7155 15.1805C21.2694 14.9282 21.7247 14.5701 22.0814 14.106C22.441 13.6391 22.673 13.0838 22.7774 12.4399C22.8818 11.8077 22.8354 11.2552 22.6382 10.7825C22.441 10.3098 22.1162 9.94295 21.6638 9.68194C21.2114 9.42093 20.6546 9.29043 19.9933 9.29043H16.1478L14.6688 18.1995H17.0874L17.5293 15.5546ZM17.8433 13.6754L18.2533 11.2219H19.1059C19.3901 11.2219 19.6236 11.2712 19.8063 11.3698C19.9919 11.4655 20.1224 11.6047 20.1978 11.7874C20.2761 11.9672 20.2949 12.1847 20.2543 12.4399C20.2137 12.6951 20.1253 12.9155 19.989 13.1012C19.8527 13.2839 19.6743 13.426 19.4539 13.5275C19.2335 13.6261 18.9783 13.6754 18.6883 13.6754H17.8433ZM18.2567 13.3254H18.6883C18.9379 13.3254 19.1422 13.2831 19.3092 13.2088C19.4788 13.1303 19.609 13.0248 19.7077 12.8929C19.8067 12.7576 19.8759 12.5913 19.9087 12.3849C19.9421 12.1751 19.9213 12.0291 19.8769 11.9272L19.8742 11.921C19.8323 11.8195 19.7623 11.7409 19.6459 11.6809L19.64 11.6779C19.5237 11.6151 19.3525 11.5719 19.1059 11.5719H18.5496L18.2567 13.3254Z" fill="#8B5CF6"/>
</g>
<g filter="url(#filter6_i_3085_12074)">
<path fill-rule="evenodd" clip-rule="evenodd" d="M9.53196 8.94043L10.4382 11.229L12.1278 8.94043H15.8125L12.1178 13.7908L14.2741 18.5495H10.7989L9.84214 16.2038L8.11373 18.5495H4.40039L8.19472 13.6928L6.15269 8.94043H9.53196ZM8.59809 13.745L5.11798 18.1995H7.93687L9.88573 15.5546H9.95533L11.0342 18.1995H13.7313L11.7128 13.745L15.1059 9.29043H12.3044L10.3903 11.8831H10.3207L9.29411 9.29043H6.68403L8.59809 13.745Z" fill="#8B5CF6"/>
</g>
<path d="M0.875 14C0.875 6.75126 6.75126 0.875 14 0.875C21.2487 0.875 27.125 6.75126 27.125 14C27.125 21.2487 21.2487 27.125 14 27.125C6.75126 27.125 0.875 21.2487 0.875 14Z" stroke="url(#paint1_linear_3085_12074)" stroke-width="1.75"/>
</g>
<defs>
<filter id="filter0_i_3085_12074" x="0" y="0" width="30.625" height="30.625" filterUnits="userSpaceOnUse" color-interpolation-filters="sRGB">
<feFlood flood-opacity="0" result="BackgroundImageFix"/>
<feBlend mode="normal" in="SourceGraphic" in2="BackgroundImageFix" result="shape"/>
<feColorMatrix in="SourceAlpha" type="matrix" values="0 0 0 0 0 0 0 0 0 0 0 0 0 0 0 0 0 0 127 0" result="hardAlpha"/>
<feOffset dx="2.625" dy="2.625"/>
<feGaussianBlur stdDeviation="1.75"/>
<feComposite in2="hardAlpha" operator="arithmetic" k2="-1" k3="1"/>
<feColorMatrix type="matrix" values="0 0 0 0 0 0 0 0 0 0 0 0 0 0 0 0 0 0 0.25 0"/>
<feBlend mode="normal" in2="shape" result="effect1_innerShadow_3085_12074"/>
</filter>
<filter id="filter1_i_3085_12074" x="0" y="0" width="28.4375" height="28.4375" filterUnits="userSpaceOnUse" color-interpolation-filters="sRGB">
<feFlood flood-opacity="0" result="BackgroundImageFix"/>
<feBlend mode="normal" in="SourceGraphic" in2="BackgroundImageFix" result="shape"/>
<feColorMatrix in="SourceAlpha" type="matrix" values="0 0 0 0 0 0 0 0 0 0 0 0 0 0 0 0 0 0 127 0" result="hardAlpha"/>
<feOffset dx="0.4375" dy="0.4375"/>
<feGaussianBlur stdDeviation="0.35"/>
<feComposite in2="hardAlpha" operator="arithmetic" k2="-1" k3="1"/>
<feColorMatrix type="matrix" values="0 0 0 0 0 0 0 0 0 0 0 0 0 0 0 0 0 0 0.25 0"/>
<feBlend mode="normal" in2="shape" result="effect1_innerShadow_3085_12074"/>
</filter>
<filter id="filter2_d_3085_12074" x="-1.88379" y="2.29102" width="31.7148" height="22.9092" filterUnits="userSpaceOnUse" color-interpolation-filters="sRGB">
<feFlood flood-opacity="0" result="BackgroundImageFix"/>
<feColorMatrix in="SourceAlpha" type="matrix" values="0 0 0 0 0 0 0 0 0 0 0 0 0 0 0 0 0 0 127 0" result="hardAlpha"/>
<feOffset/>
<feGaussianBlur stdDeviation="3.5"/>
<feComposite in2="hardAlpha" operator="out"/>
<feColorMatrix type="matrix" values="0 0 0 0 0 0 0 0 0 0 0 0 0 0 0 0 0 0 0.4 0"/>
<feBlend mode="normal" in2="BackgroundImageFix" result="effect1_dropShadow_3085_12074"/>
<feBlend mode="normal" in="SourceGraphic" in2="effect1_dropShadow_3085_12074" result="shape"/>
</filter>
<filter id="filter3_i_3085_12074" x="14.668" y="9.29102" width="8.60059" height="9.34668" filterUnits="userSpaceOnUse" color-interpolation-filters="sRGB">
<feFlood flood-opacity="0" result="BackgroundImageFix"/>
<feBlend mode="normal" in="SourceGraphic" in2="BackgroundImageFix" result="shape"/>
<feColorMatrix in="SourceAlpha" type="matrix" values="0 0 0 0 0 0 0 0 0 0 0 0 0 0 0 0 0 0 127 0" result="hardAlpha"/>
<feOffset dx="0.4375" dy="0.4375"/>
<feGaussianBlur stdDeviation="0.35"/>
<feComposite in2="hardAlpha" operator="arithmetic" k2="-1" k3="1"/>
<feColorMatrix type="matrix" values="0 0 0 0 0 0 0 0 0 0 0 0 0 0 0 0 0 0 0.3 0"/>
<feBlend mode="normal" in2="shape" result="effect1_innerShadow_3085_12074"/>
</filter>
<filter id="filter4_i_3085_12074" x="5.11621" y="9.29102" width="10.4258" height="9.34668" filterUnits="userSpaceOnUse" color-interpolation-filters="sRGB">
<feFlood flood-opacity="0" result="BackgroundImageFix"/>
<feBlend mode="normal" in="SourceGraphic" in2="BackgroundImageFix" result="shape"/>
<feColorMatrix in="SourceAlpha" type="matrix" values="0 0 0 0 0 0 0 0 0 0 0 0 0 0 0 0 0 0 127 0" result="hardAlpha"/>
<feOffset dx="0.4375" dy="0.4375"/>
<feGaussianBlur stdDeviation="0.35"/>
<feComposite in2="hardAlpha" operator="arithmetic" k2="-1" k3="1"/>
<feColorMatrix type="matrix" values="0 0 0 0 0 0 0 0 0 0 0 0 0 0 0 0 0 0 0.3 0"/>
<feBlend mode="normal" in2="shape" result="effect1_innerShadow_3085_12074"/>
</filter>
<filter id="filter5_i_3085_12074" x="14.2559" y="8.94043" width="9.36328" height="10.0464" filterUnits="userSpaceOnUse" color-interpolation-filters="sRGB">
<feFlood flood-opacity="0" result="BackgroundImageFix"/>
<feBlend mode="normal" in="SourceGraphic" in2="BackgroundImageFix" result="shape"/>
<feColorMatrix in="SourceAlpha" type="matrix" values="0 0 0 0 0 0 0 0 0 0 0 0 0 0 0 0 0 0 127 0" result="hardAlpha"/>
<feOffset dx="0.4375" dy="0.4375"/>
<feGaussianBlur stdDeviation="0.4375"/>
<feComposite in2="hardAlpha" operator="arithmetic" k2="-1" k3="1"/>
<feColorMatrix type="matrix" values="0 0 0 0 0 0 0 0 0 0 0 0 0 0 0 0 0 0 0.3 0"/>
<feBlend mode="normal" in2="shape" result="effect1_innerShadow_3085_12074"/>
</filter>
<filter id="filter6_i_3085_12074" x="4.40039" y="8.94043" width="11.8496" height="10.0464" filterUnits="userSpaceOnUse" color-interpolation-filters="sRGB">
<feFlood flood-opacity="0" result="BackgroundImageFix"/>
<feBlend mode="normal" in="SourceGraphic" in2="BackgroundImageFix" result="shape"/>
<feColorMatrix in="SourceAlpha" type="matrix" values="0 0 0 0 0 0 0 0 0 0 0 0 0 0 0 0 0 0 127 0" result="hardAlpha"/>
<feOffset dx="0.4375" dy="0.4375"/>
<feGaussianBlur stdDeviation="0.4375"/>
<feComposite in2="hardAlpha" operator="arithmetic" k2="-1" k3="1"/>
<feColorMatrix type="matrix" values="0 0 0 0 0 0 0 0 0 0 0 0 0 0 0 0 0 0 0.3 0"/>
<feBlend mode="normal" in2="shape" result="effect1_innerShadow_3085_12074"/>
</filter>
<linearGradient id="paint0_linear_3085_12074" x1="24.5" y1="0.875001" x2="3.5" y2="24.5" gradientUnits="userSpaceOnUse">
<stop stop-color="#7C3AED"/>
<stop offset="0.34" stop-color="#6630C2"/>
<stop offset="0.43" stop-color="#823FF4"/>
<stop offset="0.66" stop-color="#5A2AAC"/>
<stop offset="1" stop-color="#472187"/>
</linearGradient>
<linearGradient id="paint1_linear_3085_12074" x1="24.5" y1="-0.874999" x2="1.75" y2="24.5" gradientUnits="userSpaceOnUse">
<stop stop-color="#8B5CF6"/>
<stop offset="0.38" stop-color="#784DDB"/>
<stop offset="0.53" stop-color="#8352F3"/>
<stop offset="0.65" stop-color="#6134C6"/>
<stop offset="1" stop-color="#513690"/>
</linearGradient>
<clipPath id="clip0_3085_12074">
<rect width="28" height="28" rx="14" fill="white"/>
</clipPath>
</defs>
</svg>
